# Blender 4.0.1
# www.blender.org
mtllib old_cabinet.mtl
o Cube.028
v 0.013270 -0.048763 -0.406976
v 0.022505 -0.048763 0.275797
v 0.022505 1.425895 0.275797
v 0.013270 1.425895 -0.406976
v 0.022505 0.889786 0.275797
v 0.013270 0.889786 -0.406976
v 0.022505 0.992805 0.275797
v 0.022505 1.095825 0.275797
v 0.022505 1.198844 0.275797
v 0.022505 1.301863 0.275797
v 0.013270 1.301863 -0.406976
v 0.013270 1.198844 -0.406976
v 0.013270 1.095824 -0.406976
v 0.013270 0.992805 -0.406976
v 0.021027 1.320982 0.166527
v 0.021027 1.340206 0.166527
v 0.014748 1.340206 -0.297706
v 0.014748 1.320982 -0.297706
v 0.021027 0.909102 0.166527
v 0.021027 0.929153 0.166527
v 0.014748 0.929153 -0.297706
v 0.014748 0.909102 -0.297706
v 0.021027 1.012122 0.166527
v 0.021027 1.032173 0.166527
v 0.014748 1.032173 -0.297706
v 0.014748 1.012122 -0.297706
v 0.021027 1.115141 0.166527
v 0.021027 1.135192 0.166527
v 0.014748 1.135192 -0.297706
v 0.014748 1.115141 -0.297706
v 0.021027 1.218161 0.166527
v 0.021027 1.238211 0.166527
v 0.014748 1.238211 -0.297706
v 0.014748 1.218160 -0.297706
v 0.013017 -0.071180 -0.425686
v 0.022759 -0.071180 0.294508
v 0.022759 1.449744 0.294508
v 0.013017 1.449744 -0.425686
v 0.022759 0.884252 0.294508
v 0.013017 0.884252 -0.425686
v 0.022759 0.992918 0.294508
v 0.022759 1.101583 0.294508
v 0.022759 1.210249 0.294508
v 0.022759 1.318914 0.294508
v 0.013017 1.318914 -0.425686
v 0.013017 1.210249 -0.425686
v 0.013017 1.101583 -0.425686
v 0.013017 0.992917 -0.425686
v 0.023047 -0.048763 -0.407108
v 0.032282 -0.048763 0.275665
v 0.032282 1.425895 0.275665
v 0.023047 1.425895 -0.407108
v 0.032282 0.889786 0.275665
v 0.023047 0.889786 -0.407108
v 0.032282 0.992805 0.275665
v 0.032282 1.095825 0.275665
v 0.032282 1.198844 0.275665
v 0.032282 1.301863 0.275665
v 0.023047 1.301863 -0.407108
v 0.023047 1.198844 -0.407108
v 0.023047 1.095824 -0.407108
v 0.023047 0.992805 -0.407108
v 0.030804 1.320982 0.166395
v 0.030804 1.340206 0.166395
v 0.024525 1.340206 -0.297838
v 0.024525 1.320982 -0.297838
v 0.030804 0.909102 0.166395
v 0.030804 0.929153 0.166395
v 0.024525 0.929153 -0.297838
v 0.024525 0.909102 -0.297838
v 0.030804 1.012122 0.166395
v 0.030804 1.032173 0.166395
v 0.024525 1.032173 -0.297838
v 0.024525 1.012122 -0.297838
v 0.030804 1.115141 0.166395
v 0.030804 1.135192 0.166395
v 0.024525 1.135192 -0.297838
v 0.024525 1.115141 -0.297838
v 0.030804 1.218161 0.166395
v 0.030804 1.238211 0.166395
v 0.024525 1.238211 -0.297838
v 0.024525 1.218160 -0.297838
v 0.022794 -0.071180 -0.425818
v 0.032535 -0.071180 0.294375
v 0.032535 1.449744 0.294375
v 0.022794 1.449744 -0.425818
v 0.032535 0.884252 0.294375
v 0.022794 0.884252 -0.425818
v 0.032535 0.992918 0.294375
v 0.032535 1.101583 0.294375
v 0.032535 1.210249 0.294375
v 0.032535 1.318914 0.294375
v 0.022794 1.318914 -0.425818
v 0.022794 1.210249 -0.425818
v 0.022794 1.101583 -0.425818
v 0.022794 0.992917 -0.425818
v 0.053950 -0.048763 -0.407526
v 0.063185 -0.048763 0.275247
v 0.063185 1.301863 0.275247
v 0.063185 1.425895 0.275247
v 0.053950 1.425895 -0.407526
v 0.053950 0.889786 -0.407526
v 0.063185 0.889786 0.275247
v 0.053950 0.992805 -0.407526
v 0.063185 0.992805 0.275247
v 0.063185 1.095825 0.275247
v 0.063185 1.198844 0.275247
v 0.053950 1.301863 -0.407526
v 0.053950 1.198844 -0.407526
v 0.053950 1.095824 -0.407526
v 0.053696 -0.071180 -0.426236
v 0.063438 -0.071180 0.293957
v 0.063438 1.318914 0.293957
v 0.063438 1.449744 0.293957
v 0.053696 1.449744 -0.426236
v 0.053696 0.884252 -0.426236
v 0.063438 0.884252 0.293957
v 0.053696 0.992917 -0.426236
v 0.063438 0.992918 0.293957
v 0.063438 1.101583 0.293957
v 0.063438 1.210249 0.293957
v 0.053696 1.318914 -0.426236
v 0.053696 1.210249 -0.426236
v 0.053696 1.101583 -0.426236
vn -0.9999 -0.0000 0.0135
vn 0.9999 -0.0000 -0.0135
vn -0.0135 -0.0000 -0.9999
vn 0.0135 -0.0000 0.9999
vn -0.0000 1.0000 -0.0000
vn -0.0000 -1.0000 -0.0000
vt 0.006212 0.497457
vt 0.006214 0.185882
vt 0.232884 0.185878
vt 0.232888 0.497458
vt 0.006213 0.049092
vt 0.006212 0.007919
vt 0.042488 0.036364
vt 0.042488 0.042745
vt 0.232881 0.007916
vt 0.196606 0.036362
vt 0.232882 0.049089
vt 0.196606 0.042743
vt 0.006214 0.151685
vt 0.042490 0.172813
vt 0.042490 0.179469
vt 0.232883 0.151681
vt 0.196608 0.172811
vt 0.196608 0.179467
vt 0.006213 0.117487
vt 0.042489 0.138616
vt 0.042489 0.145272
vt 0.232883 0.117484
vt 0.196608 0.138614
vt 0.196608 0.145270
vt 0.006213 0.083290
vt 0.042489 0.104419
vt 0.042489 0.111074
vt 0.232882 0.083287
vt 0.196607 0.104417
vt 0.196607 0.111072
vt 0.042488 0.070221
vt 0.042489 0.076877
vt 0.196607 0.070219
vt 0.196607 0.076875
vt 0.239093 0.043429
vt 0.239094 0.079501
vt 0.239095 0.151644
vt 0.239095 0.187715
vt 0.239094 0.115572
vt 0.000003 0.187719
vt 0.000002 0.151647
vt 0.239100 0.504899
vt 0.000000 0.504899
vt 0.000002 0.115576
vt 0.000001 0.043432
vt 0.000000 0.000003
vt 0.000001 0.079504
vt 0.239093 0.000000
vt 0.943940 0.489532
vt 0.717265 0.489532
vt 0.717264 0.177970
vt 0.943940 0.177969
vt 0.943940 0.041176
vt 0.907663 0.034829
vt 0.907663 0.028447
vt 0.943940 0.000002
vt 0.753542 0.028446
vt 0.717265 0.000000
vt 0.753542 0.034828
vt 0.717264 0.041174
vt 0.907663 0.171557
vt 0.907663 0.164901
vt 0.943940 0.143771
vt 0.753541 0.164901
vt 0.717264 0.143771
vt 0.753541 0.171557
vt 0.907663 0.137359
vt 0.907663 0.130702
vt 0.943940 0.109572
vt 0.753541 0.130702
vt 0.717264 0.109572
vt 0.753541 0.137358
vt 0.907663 0.103160
vt 0.907663 0.096504
vt 0.943940 0.075374
vt 0.753541 0.096504
vt 0.717264 0.075373
vt 0.753541 0.103160
vt 0.907664 0.068962
vt 0.907664 0.062306
vt 0.753541 0.062305
vt 0.753541 0.068961
vt 0.948400 0.441537
vt 0.947538 0.401516
vt 0.958831 0.401650
vt 0.958087 0.441305
vt 1.000000 0.640834
vt 1.000000 0.675032
vt 0.989740 0.675032
vt 0.989740 0.640834
vt 0.966843 0.505341
vt 0.968586 0.234764
vt 0.977906 0.234790
vt 0.976588 0.505366
vt 1.000000 0.606636
vt 0.989740 0.606636
vt 0.954033 0.710746
vt 0.962745 0.710606
vt 1.000000 0.572437
vt 0.989740 0.572437
vt 0.949134 0.233816
vt 0.952714 0.000049
vt 0.962745 0.000177
vt 0.959754 0.233959
vt 1.000000 0.538239
vt 0.989740 0.538239
vt 0.968158 0.712715
vt 0.967628 0.664786
vt 0.978950 0.664661
vt 0.979481 0.712590
vt 0.969409 0.000012
vt 0.979481 0.000080
vt 0.979481 0.345758
vt 0.979481 0.311560
vt 0.989740 0.311560
vt 0.989740 0.345758
vt 0.947773 0.361676
vt 0.959117 0.361755
vt 1.000000 0.226678
vt 0.989740 0.226678
vt 0.948043 0.321799
vt 0.959386 0.321874
vt 0.016229 0.511281
vt 0.016229 0.504899
vt 0.019475 0.504899
vt 0.019475 0.511281
vt 0.016229 0.665404
vt 0.019475 0.665404
vt 0.016229 0.504899
vt 0.016229 0.659023
vt 0.012983 0.659023
vt 0.012984 0.504899
vt 0.016229 0.665405
vt 0.012983 0.665405
vt 0.720510 0.804432
vt 0.720510 0.811089
vt 0.717264 0.811089
vt 0.717264 0.804433
vt 0.720510 0.650308
vt 0.717264 0.650308
vt 0.720510 0.489532
vt 0.720510 0.643652
vt 0.717264 0.643652
vt 0.717264 0.489532
vt 0.720510 0.496189
vt 0.720510 0.489532
vt 0.723756 0.489532
vt 0.723756 0.496189
vt 0.720510 0.650315
vt 0.723756 0.650315
vt 0.720510 0.811093
vt 0.720510 0.656971
vt 0.723756 0.656971
vt 0.723756 0.811093
vt 0.006492 0.659024
vt 0.006492 0.665680
vt 0.003246 0.665680
vt 0.003246 0.659024
vt 0.006492 0.504899
vt 0.003246 0.504899
vt 0.009738 0.665678
vt 0.009738 0.511555
vt 0.012983 0.511555
vt 0.012983 0.665678
vt 0.009738 0.504899
vt 0.012983 0.504899
vt 0.003246 0.659022
vt 0.003246 0.665678
vt 0.000000 0.665678
vt 0.000000 0.659022
vt 0.003246 0.504899
vt 0.000000 0.504899
vt 0.009737 0.504899
vt 0.009738 0.659023
vt 0.006492 0.659023
vt 0.006492 0.504899
vt 0.009738 0.665679
vt 0.006492 0.665679
vt 0.964223 0.234760
vt 0.965314 0.000000
vt 0.964577 0.712755
vt 0.964046 0.664826
vt 0.945325 0.233753
vt 0.948636 0.000000
vt 0.949334 0.710849
vt 0.944390 0.441623
vt 0.962824 0.505293
vt 0.943940 0.401521
vt 0.962745 0.545409
vt 0.966339 0.545395
vt 0.963165 0.585209
vt 0.966747 0.585170
vt 0.963606 0.625017
vt 0.967188 0.624977
vt 0.944732 0.281899
vt 0.948324 0.281934
vt 0.944455 0.321774
vt 0.944186 0.361652
vt 0.471975 0.421631
vt 0.478187 0.425417
vt 0.478187 0.461488
vt 0.471975 0.455828
vt 0.471975 0.319041
vt 0.478187 0.317204
vt 0.478187 0.353275
vt 0.471975 0.353237
vt 0.471975 0.387434
vt 0.478187 0.389346
vt 0.711052 0.151698
vt 0.717264 0.151661
vt 0.717264 0.187736
vt 0.711052 0.185899
vt 0.711053 0.497487
vt 0.717264 0.504928
vt 0.478187 0.504928
vt 0.484398 0.497487
vt 0.711052 0.117497
vt 0.717264 0.115585
vt 0.711052 0.007917
vt 0.717264 0.000000
vt 0.717264 0.043434
vt 0.711052 0.049094
vt 0.711052 0.083295
vt 0.717264 0.079509
vt 0.471976 0.497000
vt 0.478187 0.504916
vt 0.239100 0.504917
vt 0.245311 0.497000
vt 0.471974 0.007442
vt 0.478187 0.000000
vt 0.979481 0.489529
vt 0.979481 0.448355
vt 0.989740 0.448355
vt 0.989740 0.489529
vt 0.977603 0.545212
vt 0.979481 0.414156
vt 0.989740 0.414156
vt 0.978069 0.585042
vt 0.979481 0.379957
vt 0.989740 0.379957
vt 0.978510 0.624852
vt 1.000000 0.000000
vt 0.989741 0.000000
vt 1.000000 0.716206
vt 0.989740 0.716206
vt 0.979481 0.716207
vt 0.989740 0.716207
vt 0.959644 0.281985
vt 0.979481 0.000000
vt 0.989740 0.000000
s 0
usemtl carbinet__front
f 2/1/1 5/2/1 6/3/1 1/4/1
f 10/5/1 3/6/1 16/7/1 15/8/1
f 3/6/1 4/9/1 17/10/1 16/7/1
f 4/9/1 11/11/1 18/12/1 17/10/1
f 11/11/1 10/5/1 15/8/1 18/12/1
f 5/2/1 7/13/1 20/14/1 19/15/1
f 7/13/1 14/16/1 21/17/1 20/14/1
f 14/16/1 6/3/1 22/18/1 21/17/1
f 6/3/1 5/2/1 19/15/1 22/18/1
f 7/13/1 8/19/1 24/20/1 23/21/1
f 8/19/1 13/22/1 25/23/1 24/20/1
f 13/22/1 14/16/1 26/24/1 25/23/1
f 14/16/1 7/13/1 23/21/1 26/24/1
f 8/19/1 9/25/1 28/26/1 27/27/1
f 9/25/1 12/28/1 29/29/1 28/26/1
f 12/28/1 13/22/1 30/30/1 29/29/1
f 13/22/1 8/19/1 27/27/1 30/30/1
f 9/25/1 10/5/1 32/31/1 31/32/1
f 10/5/1 11/11/1 33/33/1 32/31/1
f 11/11/1 12/28/1 34/34/1 33/33/1
f 12/28/1 9/25/1 31/32/1 34/34/1
f 12/28/1 11/11/1 45/35/1 46/36/1
f 6/3/1 14/16/1 48/37/1 40/38/1
f 13/22/1 12/28/1 46/36/1 47/39/1
f 14/16/1 13/22/1 47/39/1 48/37/1
f 7/13/1 5/2/1 39/40/1 41/41/1
f 2/1/1 1/4/1 35/42/1 36/43/1
f 8/19/1 7/13/1 41/41/1 42/44/1
f 3/6/1 10/5/1 44/45/1 37/46/1
f 9/25/1 8/19/1 42/44/1 43/47/1
f 4/9/1 3/6/1 37/46/1 38/48/1
f 10/5/1 9/25/1 43/47/1 44/45/1
f 1/4/1 6/3/1 40/38/1 35/42/1
f 11/11/1 4/9/1 38/48/1 45/35/1
f 5/2/1 2/1/1 36/43/1 39/40/1
f 50/49/2 49/50/2 54/51/2 53/52/2
f 58/53/2 63/54/2 64/55/2 51/56/2
f 51/56/2 64/55/2 65/57/2 52/58/2
f 52/58/2 65/57/2 66/59/2 59/60/2
f 59/60/2 66/59/2 63/54/2 58/53/2
f 53/52/2 67/61/2 68/62/2 55/63/2
f 55/63/2 68/62/2 69/64/2 62/65/2
f 62/65/2 69/64/2 70/66/2 54/51/2
f 54/51/2 70/66/2 67/61/2 53/52/2
f 55/63/2 71/67/2 72/68/2 56/69/2
f 56/69/2 72/68/2 73/70/2 61/71/2
f 61/71/2 73/70/2 74/72/2 62/65/2
f 62/65/2 74/72/2 71/67/2 55/63/2
f 56/69/2 75/73/2 76/74/2 57/75/2
f 57/75/2 76/74/2 77/76/2 60/77/2
f 60/77/2 77/76/2 78/78/2 61/71/2
f 61/71/2 78/78/2 75/73/2 56/69/2
f 57/75/2 79/79/2 80/80/2 58/53/2
f 58/53/2 80/80/2 81/81/2 59/60/2
f 59/60/2 81/81/2 82/82/2 60/77/2
f 60/77/2 82/82/2 79/79/2 57/75/2
f 88/83/3 96/84/3 118/85/3 116/86/3
f 57/87/3 58/88/3 99/89/3 107/90/3
f 87/91/4 84/92/4 112/93/4 117/94/4
f 56/95/3 57/87/3 107/90/3 106/96/3
f 83/97/3 88/83/3 116/86/3 111/98/3
f 55/99/3 56/95/3 106/96/3 105/100/3
f 86/101/5 85/102/5 114/103/5 115/104/5
f 53/105/3 55/99/3 105/100/3 103/106/3
f 85/107/4 92/108/4 113/109/4 114/110/4
f 84/92/6 83/111/6 111/112/6 112/93/6
f 62/113/4 54/114/4 102/115/4 104/116/4
f 96/84/3 95/117/3 124/118/3 118/85/3
f 50/119/3 53/105/3 103/106/3 98/120/3
f 95/117/3 94/121/3 123/122/3 124/118/3
f 15/123/3 16/124/3 64/125/3 63/126/3
f 18/127/5 15/123/5 63/126/5 66/128/5
f 16/129/6 17/130/6 65/131/6 64/132/6
f 17/130/4 18/133/4 66/134/4 65/131/4
f 19/135/3 20/136/3 68/137/3 67/138/3
f 22/139/5 19/135/5 67/138/5 70/140/5
f 20/141/6 21/142/6 69/143/6 68/144/6
f 21/142/4 22/139/4 70/140/4 69/143/4
f 23/145/3 24/146/3 72/147/3 71/148/3
f 26/149/5 23/145/5 71/148/5 74/150/5
f 24/151/6 25/152/6 73/153/6 72/154/6
f 25/152/4 26/149/4 74/150/4 73/153/4
f 27/155/3 28/156/3 76/157/3 75/158/3
f 30/159/5 27/155/5 75/158/5 78/160/5
f 28/161/6 29/162/6 77/163/6 76/164/6
f 29/162/4 30/165/4 78/166/4 77/163/4
f 31/167/3 32/168/3 80/169/3 79/170/3
f 34/171/5 31/167/5 79/170/5 82/172/5
f 32/173/6 33/174/6 81/175/6 80/176/6
f 33/174/4 34/177/4 82/178/4 81/175/4
f 36/179/6 35/180/6 83/111/6 84/92/6
f 37/181/4 44/182/4 92/108/4 85/107/4
f 38/183/5 37/184/5 85/102/5 86/101/5
f 35/185/3 40/186/3 88/83/3 83/97/3
f 39/187/4 36/179/4 84/92/4 87/91/4
f 40/186/3 48/188/3 96/84/3 88/83/3
f 41/189/4 39/187/4 87/91/4 89/190/4
f 42/191/4 41/189/4 89/190/4 90/192/4
f 43/193/4 42/191/4 90/192/4 91/194/4
f 44/182/4 43/193/4 91/194/4 92/108/4
f 45/195/3 38/183/3 86/101/3 93/196/3
f 46/197/3 45/195/3 93/196/3 94/121/3
f 47/198/3 46/197/3 94/121/3 95/117/3
f 48/188/3 47/198/3 95/117/3 96/84/3
f 109/199/2 123/200/2 122/201/2 108/202/2
f 102/203/2 116/204/2 118/205/2 104/206/2
f 110/207/2 124/208/2 123/200/2 109/199/2
f 104/206/2 118/205/2 124/208/2 110/207/2
f 105/209/2 119/210/2 117/211/2 103/212/2
f 98/213/2 112/214/2 111/215/2 97/216/2
f 106/217/2 120/218/2 119/210/2 105/209/2
f 100/219/2 114/220/2 113/221/2 99/222/2
f 107/223/2 121/224/2 120/218/2 106/217/2
f 101/225/2 115/226/2 114/227/2 100/228/2
f 99/222/2 113/221/2 121/224/2 107/223/2
f 97/229/2 111/230/2 116/204/2 102/203/2
f 108/202/2 122/201/2 115/226/2 101/225/2
f 103/212/2 117/211/2 112/214/2 98/213/2
f 52/231/4 59/232/4 108/233/4 101/234/4
f 89/190/4 87/91/4 117/94/4 119/235/4
f 59/232/4 60/236/4 109/237/4 108/233/4
f 90/192/4 89/190/4 119/235/4 120/238/4
f 60/236/4 61/239/4 110/240/4 109/237/4
f 91/194/4 90/192/4 120/238/4 121/241/4
f 49/242/5 50/119/5 98/120/5 97/243/5
f 61/239/4 62/113/4 104/116/4 110/240/4
f 92/108/4 91/194/4 121/241/4 113/109/4
f 58/88/3 51/244/3 100/245/3 99/89/3
f 51/246/6 52/231/6 101/234/6 100/247/6
f 93/196/3 86/101/3 115/104/3 122/248/3
f 94/121/3 93/196/3 122/248/3 123/122/3
f 54/114/4 49/249/4 97/250/4 102/115/4
o Cube.027
v 0.080894 1.042036 0.283667
v 0.080894 1.072099 0.283667
v 0.080894 1.042036 -0.418756
v 0.080894 1.072099 -0.418756
v 0.725768 1.042036 0.283667
v 0.725768 1.072099 0.283667
v 0.725768 1.042036 -0.418756
v 0.725768 1.072099 -0.418756
v 0.059943 -0.069655 0.286608
v 0.059943 1.451705 0.286608
v 0.059943 -0.069655 -0.421697
v 0.059943 1.451705 -0.421697
v 0.775983 -0.097132 0.310167
v 0.059943 -0.097132 0.310167
v 0.726655 -0.069655 -0.421697
v 0.726655 -0.069655 0.286608
v 0.726655 1.451705 0.286608
v 0.726655 1.451705 -0.421697
v 0.080894 0.366673 0.283667
v 0.080894 0.396735 0.283667
v 0.080894 0.366673 -0.418756
v 0.080894 0.396735 -0.418756
v 0.725768 0.366673 0.283667
v 0.725768 0.396735 0.283667
v 0.725768 0.366673 -0.418756
v 0.725768 0.396735 -0.418756
v 0.769533 1.479181 0.303717
v 0.775983 1.472445 0.310167
v 0.769533 -0.090681 -0.445256
v 0.775983 -0.097132 -0.439062
v 0.769533 1.479181 -0.438806
v 0.775983 1.472456 -0.438806
v 0.769533 1.472731 -0.445256
v 0.066393 -0.090681 -0.445256
v 0.059943 -0.097132 -0.439338
v 0.059943 1.472412 0.310167
v 0.066393 1.479181 0.303717
v 0.066393 1.479181 -0.438806
v 0.066393 1.472731 -0.445256
v 0.059943 1.472353 -0.439401
vn -1.0000 -0.0000 -0.0000
vn -0.0000 -0.0000 -1.0000
vn 1.0000 -0.0000 -0.0000
vn -0.0000 -0.0000 1.0000
vn -0.0000 -1.0000 -0.0000
vn -0.0000 1.0000 -0.0000
vn 0.5934 0.5692 -0.5692
vn -0.5642 0.5838 -0.5838
vn -0.7255 0.6883 -0.0000
vn -0.6741 -0.0000 -0.7386
vn 0.0001 -0.6845 -0.7290
vn -0.0000 0.7071 -0.7071
vn 0.7000 0.0001 -0.7141
vn 0.7220 0.6919 -0.0000
vn -0.0000 0.6907 0.7231
vt 0.868239 0.000000
vt 0.875653 0.000000
vt 0.875653 0.173213
vt 0.868239 0.173213
vt 0.875652 0.332236
vt 0.868239 0.332236
vt 0.562629 0.882056
vt 0.555216 0.882056
vt 0.555216 0.708844
vt 0.562629 0.708844
vt 0.555216 0.549821
vt 0.562629 0.549821
vt 0.840978 0.915926
vt 0.681957 0.915926
vt 0.681957 0.742713
vt 0.840978 0.742713
vt 0.333685 0.748205
vt 0.174663 0.748205
vt 0.174663 0.574992
vt 0.333685 0.574992
vt 0.681957 0.000000
vt 0.681957 0.174663
vt 0.517549 0.174663
vt 0.517549 0.000000
vt 0.359213 0.896744
vt 0.541732 0.896744
vt 0.546278 0.903825
vt 0.353142 0.903825
vt 0.176571 0.186283
vt 0.176571 0.573331
vt 0.000000 0.573322
vt 0.000000 0.186283
vt 0.000000 0.001459
vt 0.176571 0.001528
vt 0.178162 0.573401
vt 0.178162 0.187873
vt 0.351551 0.187873
vt 0.351551 0.573401
vt 0.866712 0.000000
vt 0.866649 0.387051
vt 0.681957 0.387048
vt 0.681957 0.000000
vt 0.688013 0.394849
vt 0.688028 0.735633
vt 0.683465 0.740954
vt 0.683478 0.388702
vt 0.870546 0.735633
vt 0.876617 0.740969
vt 0.359198 0.555963
vt 0.353142 0.551341
vt 0.000000 0.950149
vt 0.000000 0.574992
vt 0.174663 0.574992
vt 0.174663 0.950149
vt 0.353142 0.375158
vt 0.353142 0.000000
vt 0.517549 0.000000
vt 0.517549 0.375158
vt 0.681957 0.549821
vt 0.517549 0.549821
vt 0.353142 0.549821
vt 0.517549 0.549821
vt 0.547803 0.549821
vt 0.555216 0.549821
vt 0.555216 0.723034
vt 0.547803 0.723034
vt 0.555216 0.882057
vt 0.547803 0.882057
vt 0.562629 0.549821
vt 0.570043 0.549821
vt 0.570043 0.723034
vt 0.562629 0.723034
vt 0.570043 0.882057
vt 0.562629 0.882057
vt 0.840978 0.742713
vt 1.000000 0.742713
vt 1.000000 0.915926
vt 0.840978 0.915926
vt 0.333685 0.921418
vt 0.174663 0.921418
vt 0.174663 0.748205
vt 0.333685 0.748205
vt 0.351551 0.184692
vt 0.353142 0.184692
vt 0.351551 0.186283
vt 0.178162 0.184692
vt 0.178162 0.186283
vt 0.176571 0.184839
vt 0.178162 0.001591
vt 0.176571 0.184839
vt 0.176571 0.000000
vt 0.176571 0.574992
vt 0.176571 0.187967
vt 0.353142 0.574991
vt 0.353142 0.187941
vt 0.351551 0.001591
vt 0.353142 0.000000
s 0
usemtl cabinet_back
f 125/251/7 126/252/7 128/253/7 127/254/7
f 127/254/8 128/253/8 132/255/8 131/256/8
f 131/257/9 132/258/9 130/259/9 129/260/9
f 129/260/10 130/259/10 126/261/10 125/262/10
f 127/263/11 131/264/11 129/265/11 125/266/11
f 132/267/12 128/268/12 126/269/12 130/270/12
f 135/271/12 133/272/12 140/273/12 139/274/12
f 133/275/7 135/276/7 159/277/7 138/278/7
f 137/279/10 152/280/10 160/281/10 138/282/10
f 159/283/11 154/284/11 137/279/11 138/282/11
f 158/285/8 163/286/8 157/287/8 153/288/8
f 154/289/9 156/290/9 152/291/9 137/292/9
f 135/293/7 136/294/7 164/295/7 159/296/7
f 136/294/7 134/297/7 160/298/7 164/295/7
f 134/299/7 133/275/7 138/278/7 160/300/7
f 140/301/7 141/302/7 142/303/7 139/304/7
f 136/305/10 135/306/10 139/307/10 142/308/10
f 133/272/8 134/309/8 141/310/8 140/273/8
f 134/311/11 136/305/11 142/308/11 141/312/11
f 143/313/7 144/314/7 146/315/7 145/316/7
f 145/316/8 146/315/8 150/317/8 149/318/8
f 149/319/9 150/320/9 148/321/9 147/322/9
f 147/322/10 148/321/10 144/323/10 143/324/10
f 145/325/11 149/326/11 147/327/11 143/328/11
f 150/329/12 146/330/12 144/331/12 148/332/12
f 155/333/13 156/334/13 157/335/13
f 162/336/14 163/337/14 164/338/14
f 161/339/15 162/336/15 164/340/15 160/341/15
f 163/286/16 158/285/16 159/342/16 164/343/16
f 154/344/17 159/342/17 158/285/17 153/288/17
f 162/336/18 155/333/18 157/287/18 163/286/18
f 156/345/19 154/344/19 153/288/19 157/287/19
f 155/333/20 151/346/20 152/347/20 156/334/20
f 151/346/21 161/339/21 160/341/21 152/347/21
f 155/333/12 162/336/12 161/339/12 151/346/12
